<?xml version="1.0" encoding="utf-8"?>
<!-- Generator: Adobe Illustrator 19.0.0, SVG Export Plug-In . SVG Version: 6.00 Build 0)  -->
<svg version="1.1" id="图层_1" xmlns="http://www.w3.org/2000/svg" xmlns:xlink="http://www.w3.org/1999/xlink" x="0px" y="0px"
	 viewBox="0 0 595.3 841.9" style="enable-background:new 0 0 595.3 841.9;" xml:space="preserve">
<style type="text/css">
	.st0{fill:#A3D9EC;}
	.st1{fill:#1E99D5;stroke:#FFFFFF;stroke-width:8;stroke-linecap:round;stroke-linejoin:round;stroke-miterlimit:10;}
	.st2{fill:#FFFFFF;}
	.st3{fill:#18244B;}
</style>
<g id="XMLID_12_">
	<path id="XMLID_8_" class="st0" d="M590,549.4c0,131-86.1,241.9-204.9,279.1c8.9-3.1,17.6-6.7,26-10.7c35-16.8,65.5-41.7,91.5-70.8
		c26-29.1,47.6-62.4,59.7-99.2c12.2-36.8,15-77,6.2-114.7c-8.8-37.7-29.3-72.9-56.7-100.5c-27.4-27.5-61.7-47.5-98.6-59.6
		c-36.5-12-75.7-16.3-113.9-16.5h-3.4c-38.2,0.2-77.4,4.6-113.9,16.5c-36.9,12.1-71.2,32.1-98.6,59.6
		C56,460.2,35.5,495.4,26.7,533.1c-8.8,37.7-6,78,6.2,114.7c12.2,36.8,33.7,70.1,59.7,99.2c26,29.1,56.5,53.9,91.5,70.8
		c8.4,4,17.1,7.6,26,10.7C91.4,791.3,5.3,680.4,5.3,549.4c0-91.9,35.4-168.7,100.4-221.4c6.2-5,11.3-9.2,11.3-9.2
		c9.8-8.2,21.4-38.2,19.8-53.8c-2.9-29.4-21.7-109.7-28.2-118c-6.5-8.2-12.9-13.5-25.4-15v0c-36.6-3.5-64.3-30.2-64.3-66.1
		C18.9,29.6,48.5,0,85,0c36.5,0,66,29.6,66,66c0,19-10,35.8-20.9,48.2c-7.7,8.7-8,15.1-6.3,26.1c1.9,12.1,26.8,66.6,61.4,106.2
		c8.5,9.7,21,15.8,30.9,17.7c3.4,0.7,10.2,1.1,13.6,0.1c24.6-6.8,40.4-7.5,66.9-7.5h1.9c26.6,0,42.4,0.7,66.9,7.5
		c3.4,1,10.2,0.6,13.6-0.1c9.9-1.9,22.5-8,30.9-17.7c34.7-39.6,59.6-94.1,61.4-106.2c1.7-11,1.3-17.4-6.3-26.1
		C454.2,101.9,444.3,85,444.3,66c0-36.5,29.6-66,66-66c36.5,0,66.1,29.6,66.1,66c0,35.9-27.7,62.5-64.3,66.1v0
		c-12.5,1.5-18.9,6.8-25.4,15c-6.5,8.2-25.3,88.6-28.2,118c-1.5,15.6,10.1,45.5,19.9,53.8c0,0,5.1,4.2,11.3,9.2
		C554.7,380.7,590,457.5,590,549.4z"/>
	<path id="XMLID_39_" class="st1" d="M568.9,533.1c-8.8-37.7-29.3-72.9-56.7-100.5c-27.4-27.5-61.7-47.5-98.6-59.6
		c-36.9-12.1-76.4-16.4-115-16.5H297c-38.6,0.2-78.1,4.4-115,16.5c-36.9,12.1-71.2,32.1-98.6,59.6C56,460.2,35.5,495.4,26.7,533.1
		c-8.8,37.7-6,78,6.2,114.7c12.2,36.8,33.7,70.1,59.7,99.2c26,29.1,56.5,53.9,91.5,70.8c8.4,4,17.1,7.6,26,10.7
		c27.4,8.6,56.6,13.3,86.9,13.3h1.5c30.3-0.1,59.6-4.8,87.1-13.4c8.8-3.1,17.4-6.7,25.8-10.7c35-16.8,65.5-41.7,91.5-70.8
		c26-29.1,47.6-62.4,59.8-99.2C574.8,611.1,577.7,570.8,568.9,533.1z"/>
	<path id="XMLID_4_" class="st2" d="M557,577.7c0.6,30.3-4.9,59.3-17.2,87.1c-12.3,27.8-31.3,54.4-55.5,70.7
		c-24.2,16.3-53.7,22.3-81.4,17.6c-22.4-4.7-41.3-24.9-52.9-50.5c-3.1-6.8-5.6-13.8-7.7-21.2c8.3,4.2,17.4,6.9,26.8,7.9
		c17,1.9,34.7-1.6,50.8-9c16-7.4,30.3-18.8,41.5-32.7c11.2-13.9,19.3-30.4,23.5-48c4.2-17.5,4.7-36.2,1.2-53.9
		c-3.5-17.7-10.7-34.5-22.2-48.5c-11.4-14-27-25.3-44.2-29.9c-8.4-2.2-17.1-2.9-25.7-2.1c2.5-2.3,5.1-4.5,7.8-6.5
		c21.9-16.7,48.6-23.7,72.8-17.8c24.3,5.9,46.2,24.7,60.5,49.8C549.6,515.9,556.4,547.4,557,577.7z"/>
	<path id="XMLID_3_" class="st3" d="M486.1,545.7c3.4,17.7,3,36.3-1.2,53.9c-4.2,17.5-12.3,34.1-23.5,48
		c-11.2,13.9-25.5,25.3-41.5,32.7c-16,7.4-33.7,10.9-50.8,9c-9.4-1-18.6-3.7-26.8-7.9c-5.9-20.7-8.3-43.4-7.9-65.5
		c0.5-29.9,5.8-58.6,17.1-86.2c9.9-24.3,24.4-47.8,42.7-64.5c8.6-0.8,17.3-0.1,25.7,2.1c17.1,4.6,32.7,15.9,44.2,29.9
		C475.4,511.2,482.6,528,486.1,545.7z"/>
	<path id="XMLID_2_" class="st3" d="M261.3,615.9c0.3,22.1-2,44.8-8,65.5c-8.2,4.2-17.4,6.9-26.8,7.9c-17,1.9-34.7-1.6-50.7-9
		c-16-7.4-30.3-18.8-41.5-32.7c-11.2-13.9-19.2-30.4-23.5-48c-4.2-17.5-4.6-36.2-1.2-53.9c3.4-17.7,10.7-34.5,22.1-48.5
		c11.5-14,27-25.3,44.2-29.9c8.3-2.2,17-2.9,25.6-2.1c18.3,16.7,32.8,40.2,42.7,64.5C255.5,557.4,260.9,586,261.3,615.9z"/>
	<path id="XMLID_1_" class="st2" d="M253.3,681.4c-2.1,7.4-4.6,14.4-7.7,21.2c-11.7,25.6-30.6,45.7-52.9,50.5
		c-27.6,4.7-57.2-1.3-81.4-17.6c-24.3-16.3-43.2-42.9-55.5-70.7C43.5,637,37.9,608,38.5,577.7c0.6-30.3,7.5-61.8,21.9-86.9
		c14.4-25.1,36.3-43.9,60.5-49.8c24.3-5.9,50.9,1,72.8,17.8c2.7,2,5.3,4.2,7.8,6.5c-8.6-0.8-17.3-0.1-25.6,2.1
		c-17.2,4.6-32.7,15.9-44.2,29.9c-11.4,14-18.7,30.8-22.1,48.5c-3.4,17.7-3,36.3,1.2,53.9c4.2,17.5,12.3,34.1,23.5,48
		c11.2,13.9,25.5,25.3,41.5,32.7c16,7.4,33.7,10.9,50.7,9C235.9,688.3,245.1,685.6,253.3,681.4z"/>
</g>
<g id="XMLID_9_">
</g>
<g id="XMLID_13_">
</g>
<g id="XMLID_36_">
</g>
<g id="XMLID_37_">
</g>
<g id="XMLID_38_">
</g>
<g id="XMLID_41_">
</g>
</svg>
