<?xml version="1.0" encoding="utf-8"?>
<!-- Generator: Adobe Illustrator 20.1.0, SVG Export Plug-In . SVG Version: 6.00 Build 0)  -->
<svg version="1.1" xmlns="http://www.w3.org/2000/svg" xmlns:xlink="http://www.w3.org/1999/xlink" x="0px" y="0px"
	 viewBox="0 0 595.3 841.9" style="enable-background:new 0 0 595.3 841.9;" xml:space="preserve">
<style type="text/css">
	.st0{fill:none;stroke:#1C99D5;stroke-width:24;stroke-miterlimit:10;}
	.st1{fill:none;stroke:#FFFFFF;stroke-width:24;stroke-miterlimit:10;}
</style>
<g id="图层_1">
</g>
<g id="图层_1_x5F_复制">
	<path class="st1" d="M227.4,759.3C127.5,728,55.1,634.7,55.1,524.5c0-77.3,29.7-142,84.5-186.3c5.2-4.2,9.5-7.8,9.5-7.8
		c8.2-6.9,18-32.1,16.7-45.2c-2.4-24.7-18.2-92.4-23.7-99.3c-5.4-6.9-10.8-11.3-21.4-12.6v0c-30.8-3-54.1-25.4-54.1-55.5
		c0-30.7,24.9-55.6,55.6-55.6c30.7,0,55.6,24.9,55.6,55.6c0,16-8.4,30.1-17.6,40.6c-6.5,7.3-6.8,12.7-5.4,22
		c1.6,10.2,22.5,56.1,51.7,89.4c7.1,8.2,17.7,13.3,26,14.9c2.9,0.6,8.6,0.9,11.4,0.1c20.7-5.7,34-6.3,56.3-6.3h1.6
		c22.3,0,35.7,0.6,56.3,6.3c2.9,0.8,8.5,0.5,11.4-0.1c8.4-1.6,18.9-6.8,26-14.9c29.2-33.3,50.1-79.2,51.7-89.4
		c1.4-9.2,1.1-14.6-5.3-22c-9.2-10.4-17.6-24.6-17.6-40.6c0-30.7,24.9-55.6,55.6-55.6c30.7,0,55.6,24.9,55.6,55.6
		c0,30.2-23.3,52.6-54.1,55.5v0c-10.5,1.3-15.9,5.7-21.4,12.6c-5.5,6.9-21.3,74.5-23.7,99.3c-1.3,13.1,8.5,38.3,16.7,45.2
		c0,0,4.2,3.6,9.5,7.8c54.7,44.3,84.5,109,84.5,186.3c0,110.2-72.5,203.5-172.4,234.9"/>
	<path class="st1" d="M529.3,510.8c-7.4-31.8-24.7-61.3-47.7-84.5c-23.1-23.2-51.9-40-83-50.2c-31-10.1-64.3-13.8-96.8-13.9h-1.3
		c-32.5,0.1-65.7,3.7-96.8,13.9c-31,10.2-59.9,27-82.9,50.2c-23.1,23.2-40.3,52.8-47.7,84.5c-7.4,31.7-5,65.6,5.2,96.6
		c10.2,31,28.4,59,50.3,83.5c21.9,24.5,47.6,45.4,77,59.5c7.1,3.4,14.4,6.4,21.9,9c23.1,7.2,47.6,11.2,73.1,11.2h1.3
		c25.5-0.1,50.2-4,73.3-11.3c7.4-2.6,14.6-5.6,21.7-9c29.4-14.2,55.1-35.1,77-59.5c21.9-24.5,40-52.5,50.3-83.5
		C534.3,576.3,536.7,542.5,529.3,510.8z"/>
	<path class="st1" d="M215.6,452.6c-5.7-0.1-11.3,0.6-16.8,2c-14.4,3.9-27.5,13.3-37.2,25.1c-9.6,11.8-15.7,25.9-18.6,40.8
		c-2.9,14.9-2.6,30.6,1,45.3c3.6,14.8,10.3,28.7,19.8,40.4c9.4,11.7,21.5,21.3,34.9,27.5c13.5,6.3,28.3,9.2,42.7,7.6
		c6.5-0.7,12.9-2.4,18.9-4.9"/>
	<path class="st1" d="M261.3,635.6c-1.8,6.2-4.1,12.1-6.8,17.8c-10.4,21.6-27.2,38.5-47.1,42.5c-24.6,4-50.8-1.1-72.4-14.8
		c-21.6-13.7-38.5-36.1-49.4-59.4c-10.9-23.4-15.9-47.8-15.3-73.3c0.6-25.5,6.6-52,19.4-73.1c12.8-21.1,32.3-36.9,53.9-41.9
		c21.6-5,45.2,0.8,64.7,14.9c2.4,1.7,4.7,3.6,6.9,5.5c16.2,14,29.1,33.8,37.9,54.3c10.1,23.2,14.8,47.4,15.2,72.5
		C268.7,599,266.6,618.1,261.3,635.6z"/>
	<path class="st1" d="M390.7,452.6c5.7-0.1,11.3,0.6,16.8,2c14.4,3.9,27.5,13.3,37.2,25.1c9.6,11.8,15.7,25.9,18.6,40.8
		c2.9,14.9,2.6,30.6-1,45.3c-3.6,14.8-10.3,28.7-19.8,40.4c-9.4,11.7-21.5,21.3-34.9,27.5c-13.5,6.3-28.3,9.2-42.7,7.6
		c-6.5-0.7-12.9-2.4-18.9-4.9"/>
	<path class="st1" d="M337.9,580.4c0.4-25.2,5.2-49.3,15.2-72.5c8.8-20.4,21.7-40.2,37.9-54.3c2.2-1.9,4.5-3.8,6.9-5.5
		c19.5-14.1,43.2-19.9,64.7-14.9c21.6,5,41.1,20.8,53.9,41.9c12.8,21.2,18.8,47.7,19.4,73.1c0.6,25.5-4.4,49.9-15.3,73.3
		c-10.9,23.4-27.8,45.7-49.4,59.4c-21.6,13.7-47.8,18.8-72.4,14.8c-19.9-4-36.7-20.9-47.1-42.5c-2.7-5.7-5-11.6-6.8-17.8
		C339.7,618.1,337.6,599,337.9,580.4z"/>
</g>
</svg>
